# xmcd
#
# Track frame offsets:
# 150
# 12305
# 29713
# 42335
# 57129
# 71175
# 84249
# 98450
# 111483
# 125541
# 138519
# 152185
# 165812
#
# Disc length: 2383 seconds
#
#
# Revision: 0
# Processed by: cddbd v1.5.1PL2 Copyright (c) Steve Scherf et al.
# Submitted via: FreeRIP 2.944 
#
DISCID=a9094d0d
DTITLE=Gene Watson - Then And Now
DYEAR=2005
DGENRE=Country
TTITLE0=If I'm A Fool For Leaving
TTITLE1=Only Yesterday
TTITLE2=If I Were You I'd Fall In Love
TTITLE3=Baby My Baby
TTITLE4=Back In The Fire
TTITLE5=You Could Know As Much About A Stranger
TTITLE6=I Didn't Think Of You At All
TTITLE7=Sometimes I Get Lucky And Forget
TTITLE8=Everybody Needs A Hero
TTITLE9=I Wonder How It Is In Colorado
TTITLE10=The Jukebox Played Along
TTITLE11=You Put Out an Old Flame Last Night
TTITLE12=I Catch Myself
EXTD=
EXTT0=
EXTT1=
EXTT2=
EXTT3=
EXTT4=
EXTT5=
EXTT6=
EXTT7=
EXTT8=
EXTT9=
EXTT10=
EXTT11=
EXTT12=
PLAYORDER=
